<?xml version="1.0" encoding="UTF-8"?>
<svg width="206px" height="50px" viewBox="0 0 206 50" version="1.1" xmlns="http://www.w3.org/2000/svg" xmlns:xlink="http://www.w3.org/1999/xlink">
    <!-- Generator: Sketch 53.2 (72643) - https://sketchapp.com -->
    <title>typedtext-text</title>
    <desc>Created with Sketch.</desc>
    <g id="typedtext-text" stroke="none" stroke-width="1" fill="none" fill-rule="evenodd">
        <path d="M9.9097636,25.6593279 C9.95501389,24.4943936 10.5319464,23.9119351 11.6405785,23.9119351 C12.7492105,23.9119351 13.3035183,24.5503992 13.3035183,25.8273465 C13.3035183,27.037086 13.213019,28.0619888 13.0320179,28.9020857 C12.8510167,29.7421826 12.6021439,30.4198506 12.2853919,30.9351101 C11.3803861,32.2792651 9.89846138,32.9513326 7.83957326,32.9513326 C6.8893172,32.9513326 6.06916803,32.7945168 5.37910113,32.4808806 C4.68903424,32.1672445 4.14038272,31.7191995 3.73313012,31.1367323 C3.12225123,30.2182264 2.81681637,28.7956836 2.81681637,26.8690614 L2.81681637,19.2410197 C2.81681637,19.0842016 2.79419156,19.0057937 2.74894127,19.0057937 L1.73081488,19.0057937 C1.2330617,19.0057937 0.820159016,18.8545786 0.492094425,18.5521437 C0.164029835,18.2497088 0,17.8744711 0,17.4264195 C0,17.023173 0.164029835,16.6591364 0.492094425,16.334299 C0.820159016,16.0094615 1.1991245,15.8470452 1.62900224,15.8470452 L2.88469146,15.8470452 L2.88469146,12.419467 C2.88469146,11.2993378 3.48424879,10.7392816 4.68338143,10.7392816 C5.81463864,10.7392816 6.38025876,11.2993378 6.38025876,12.419467 L6.38025876,15.8134415 C6.38025876,15.8358441 6.39157116,15.8470452 6.4141963,15.8470452 L9.9097636,15.8470452 C11.0862711,15.8470452 11.674516,16.3622969 11.674516,17.3928158 C11.674516,18.4681398 11.0636463,19.0057937 9.84188851,19.0057937 L6.27844612,19.0057937 C6.34632155,19.0505989 6.38025876,19.1290068 6.38025876,19.2410197 L6.38025876,27.0706837 C6.38025876,28.9973059 6.93456648,29.9606025 8.04319854,29.9606025 C9.24233118,29.9606025 9.84188851,29.2101272 9.84188851,27.7091541 L9.9097636,25.6593279 Z M25.1265111,28.3812283 C25.6921397,26.83545 26.2690722,25.3120971 26.857326,23.811124 C27.4455797,22.3101509 28.0111998,20.786798 28.5542033,19.2410197 L28.5542033,19.2746234 C28.6220787,19.0505976 28.6560159,18.8601785 28.6560159,18.7033604 C28.6560159,18.6361526 28.5994539,18.6025492 28.4863282,18.6025492 C28.3279522,18.6025492 28.1582662,18.6249515 27.977265,18.6697567 C27.8867644,18.6697567 27.790609,18.6753572 27.6887959,18.6865585 C27.5869827,18.6977598 27.5134521,18.7033604 27.4682018,18.7033604 C27.4229515,18.7033604 27.3777019,18.7089609 27.3324516,18.7201622 C27.2872013,18.7313635 27.2419517,18.7369641 27.1967014,18.7369641 C26.1333197,18.7369641 25.6016368,18.2441146 25.6016368,17.2584009 C25.6016368,16.2502846 26.2351313,15.7462341 27.5021394,15.7462341 L27.7397022,15.7462341 C27.8528279,15.7462341 27.9546395,15.7574352 28.0451401,15.7798378 C28.0677652,15.7798378 28.0847339,15.7854383 28.0960464,15.7966396 C28.107359,15.8078409 28.13564,15.8134415 28.1808903,15.8134415 L29.3347669,15.98146 C29.4931429,16.0038626 29.6458603,16.0150637 29.7929238,16.0150637 L30.2850182,16.0150637 C30.4433942,16.0150637 30.6470174,16.0094632 30.895894,15.9982619 C31.1447706,15.9870606 31.4502055,15.9590578 31.8122078,15.9142526 C32.1742101,15.8694474 32.4966135,15.8358441 32.7794279,15.8134415 C33.0622422,15.7910389 33.3054588,15.7798378 33.5090851,15.7798378 C34.7760932,15.7798378 35.4095877,16.2726872 35.4095877,17.2584009 C35.4095877,18.2441146 34.8779048,18.7369641 33.814523,18.7369641 C33.497771,18.7369641 33.2941478,18.7145618 33.2036472,18.6697567 C33.1357718,18.6473541 33.0735535,18.636153 33.0169907,18.636153 C32.9604278,18.636153 32.909522,18.6249518 32.8642717,18.6025492 C32.8190214,18.6025492 32.7850842,18.5913481 32.7624591,18.5689455 C32.6040831,18.5689455 32.3552102,19.0169905 32.0158331,19.9130939 L27.6378895,30.7334878 C26.7102586,33.0857592 25.7713292,34.8667379 24.8210732,36.0764774 C23.2825634,38.0255022 21.3255178,39 18.9498776,39 C17.4792432,39 16.2688162,38.641564 15.3185601,37.9246813 C14.2778035,37.1629935 13.757433,36.2557024 13.757433,35.202781 C13.757433,34.4186906 14.0006496,33.7746259 14.4870902,33.2705678 C14.9735308,32.7665096 15.6126816,32.5144844 16.4045616,32.5144844 C17.0606908,32.5144844 17.5980299,32.6993029 18.0165951,33.0689455 C18.4351603,33.4385882 18.6444397,33.9034348 18.6444397,34.4634994 C18.6444397,35.0907718 18.4295041,35.5500179 17.9996263,35.8412514 C18.1353772,35.9308618 18.2767822,35.9812668 18.4238456,35.9924681 C18.5709091,36.0036694 18.7575637,36.00927 18.9838152,36.00927 C19.9793215,36.00927 20.8730013,35.6284318 21.6648813,34.8667439 C22.4793865,34.1274586 22.886633,33.2985755 22.886633,32.3800695 C22.886633,31.9096153 22.603823,30.979922 22.0381944,29.5909618 L18.5086895,20.7531866 C18.4860644,20.6635762 18.4521272,20.5739672 18.4068769,20.4843569 C18.3616266,20.3947466 18.316377,20.2883359 18.2711267,20.1651217 C18.2258764,20.0419075 18.1806268,19.8906923 18.1353765,19.7114716 C17.8186245,18.9497838 17.5697516,18.5689455 17.3887505,18.5689455 C17.3435002,18.5689455 17.281282,18.5745461 17.202094,18.5857474 C17.122906,18.5969487 17.0267505,18.6137504 16.9136248,18.636153 C16.7326237,18.6585555 16.5233442,18.6865583 16.2857802,18.7201622 C16.0482162,18.7537661 15.9520608,18.7705678 15.9973111,18.7705678 C14.9113041,18.7705678 14.3683088,18.2777183 14.3683088,17.2920046 C14.3683088,16.2838884 15.047053,15.7798378 16.4045616,15.7798378 L16.8796873,15.7798378 C17.0380633,15.7798378 17.1511873,15.7910389 17.2190627,15.8134415 C17.422689,15.8358441 17.6206561,15.8638469 17.8129698,15.8974508 C18.0052835,15.9310546 18.2032506,15.9590574 18.4068769,15.98146 L18.7801899,15.98146 C18.8933156,16.0038626 18.9838148,16.0150637 19.0516903,16.0150637 C19.4363177,16.0150637 19.8265956,16.0038626 20.2225356,15.98146 C20.6184756,15.9590574 21.0313783,15.9254541 21.4612561,15.8806489 C22.1400104,15.8134411 22.6038189,15.7798378 22.8526955,15.7798378 C24.1197036,15.7798378 24.7531981,16.2726872 24.7531981,17.2584009 C24.7531981,18.2665172 24.1649532,18.7705678 22.9884457,18.7705678 C22.8979451,18.7705678 22.7904773,18.7649672 22.666039,18.7537659 C22.5416007,18.7425646 22.4228205,18.725763 22.3096947,18.7033604 C22.2418193,18.7033604 22.1682887,18.6977598 22.0891007,18.6865585 C22.0099127,18.6753572 21.9363821,18.6697567 21.8685066,18.6697567 C21.8685066,18.8041722 21.9024438,18.9385857 21.9703193,19.0730012 L25.1265111,28.3812283 Z M42.0401359,15.7798378 C42.8093908,15.7798378 43.2505745,16.1158715 43.3637002,16.787949 C44.5628329,15.7350276 46.0221328,15.2085747 47.7416437,15.2085747 C48.8955261,15.2085747 49.9362671,15.410195 50.863898,15.8134415 C51.7915289,16.216688 52.5890533,16.7879453 53.2564951,17.5272306 C53.9239368,18.2665159 54.4329949,19.1682063 54.7836847,20.2323291 C55.1343744,21.2964518 55.3097166,22.4893715 55.3097166,23.811124 C55.3097166,25.155279 55.1117496,26.3986038 54.7158096,27.5411356 C54.3198695,28.6836674 53.7938428,29.6805674 53.1377137,30.5318656 C52.4363342,31.3831638 51.5992164,32.0216278 50.6263352,32.4472769 C49.653454,32.872926 48.5674634,33.0857474 47.3683307,33.0857474 C45.8071958,33.0857474 44.4836447,32.6825069 43.3976378,31.8760139 L43.3976378,34.2954809 C43.3976378,34.5419093 43.4089502,34.7211273 43.4315753,34.8331402 L43.4315753,34.7995365 C43.5220759,35.2251856 43.6578247,35.438007 43.8388259,35.438007 C43.9293265,35.438007 44.0877001,35.4156047 44.3139515,35.3707995 C44.4723276,35.348397 44.6702946,35.3259947 44.9078586,35.3035921 C45.1454226,35.2811895 45.2528904,35.2699884 45.2302653,35.2699884 C46.2483968,35.2699884 46.7574549,35.7628379 46.7574549,36.7485516 C46.7574549,37.7566678 46.1239604,38.2607184 44.8569523,38.2607184 C44.6759511,38.2607184 44.4553593,38.2495173 44.1951701,38.2271147 C43.934981,38.2047121 43.6465147,38.1711088 43.3297627,38.1263036 L43.3637002,38.1263036 C42.8433219,38.0590958 42.1532654,38.0254925 41.2935099,38.0254925 C41.0672585,38.0254925 40.8523228,38.031093 40.6486965,38.0422943 C40.4450702,38.0534956 40.2527594,38.0702973 40.0717582,38.0926999 C40.0265079,38.0926999 39.9869145,38.0983004 39.9529768,38.1095017 C39.9190391,38.120703 39.8794457,38.1263036 39.8341954,38.1263036 C39.4948182,38.1711088 39.1893834,38.2047121 38.9178816,38.2271147 C38.6463799,38.2495173 38.4427567,38.2607184 38.3070058,38.2607184 C37.7866275,38.2607184 37.3454438,38.1095033 36.9834415,37.8070684 C36.6214392,37.5046335 36.4404407,37.1293958 36.4404407,36.6813441 C36.4404407,35.718033 36.9834361,35.2363847 38.069443,35.2363847 C38.1825687,35.2363847 38.3013489,35.2419853 38.4257872,35.2531866 C38.5502255,35.2643879 38.6803181,35.2811895 38.816069,35.3035921 C39.1101959,35.3932025 39.3364439,35.438007 39.4948199,35.438007 C39.5853205,35.438007 39.6531949,35.348398 39.6984452,35.1691773 C39.7436955,34.9227489 39.7776327,34.525109 39.8002578,33.9762457 C39.822883,33.4273823 39.8455078,32.7049098 39.8681329,31.8088065 C39.8681329,29.7701713 39.8737891,27.7259662 39.8851017,25.6761298 C39.8964143,23.6262933 39.9020705,21.5820882 39.9020705,19.5434531 C39.8794453,18.848973 39.7889461,18.5017381 39.6305701,18.5017381 C39.5174444,18.5017381 39.3477584,18.5353415 39.1215069,18.6025492 C38.9631309,18.6473544 38.8160697,18.6809578 38.6803188,18.7033604 C38.5445679,18.725763 38.3861943,18.7369641 38.2051932,18.7369641 C37.0513108,18.7369641 36.4743783,18.2329135 36.4743783,17.2247972 C36.4743783,16.2614861 37.1304976,15.7798378 38.442756,15.7798378 L38.8500065,15.7798378 C39.0083826,15.7798378 39.1441314,15.7910389 39.2572571,15.8134415 C39.3477577,15.8134415 39.4326007,15.819042 39.5117887,15.8302433 C39.5909767,15.8414446 39.6645073,15.8470452 39.7323828,15.8470452 C39.8907588,15.8694478 40.0208514,15.8806489 40.1226645,15.8806489 L40.3771961,15.8806489 C40.4450716,15.8806489 40.5581956,15.8750483 40.7165716,15.863847 C40.8749476,15.8526458 41.0333212,15.8358441 41.1916973,15.8134415 C41.3726984,15.7910389 41.531072,15.7798378 41.6668229,15.7798378 L42.0401359,15.7798378 Z M43.8727634,21.0892236 C43.7596377,21.5372753 43.6804509,22.002122 43.6352006,22.4837775 C43.5899503,22.9654331 43.5560131,23.4750842 43.533388,24.0127462 L43.533388,24.264774 C43.533388,24.3655857 43.5220756,24.4607952 43.4994504,24.5504056 L43.4994504,24.9536501 C43.4994504,25.6481302 43.5277314,26.2417897 43.5842943,26.7346466 C43.6408572,27.2275034 43.7257002,27.6307439 43.8388259,27.9443801 C43.9293265,28.2356137 44.0820439,28.5044406 44.2969828,28.7508691 C44.5119216,28.9972975 44.7551383,29.22132 45.02664,29.4229432 C45.343392,29.6245665 45.6940765,29.7869828 46.078704,29.910197 C46.4633314,30.0334112 46.8705779,30.0950174 47.3004556,30.0950174 C48.6805894,30.0950174 49.7439553,29.5797657 50.490585,28.5492468 C51.2372148,27.5187279 51.6105241,26.0401796 51.6105241,24.1135574 C51.6105241,20.1707026 50.2756606,18.1993048 47.6058936,18.1993048 C46.7235129,18.1993048 45.9259886,18.4681317 45.2132965,19.0057937 C44.5006045,19.5434558 44.0537646,20.2379254 43.8727634,21.0892236 Z M73.6020542,22.7358053 C73.6020542,23.2510648 73.5907418,23.6543052 73.5681167,23.9455388 C73.5454916,24.2367724 73.4776171,24.4607949 73.3644914,24.617613 C73.2513657,24.7744311 73.0873359,24.8696406 72.872397,24.9032445 C72.6574581,24.9368484 72.3576795,24.9536501 71.973052,24.9536501 L61.7578505,24.9536501 C61.6673499,24.9536501 61.6221003,24.9648512 61.6221003,24.9872538 C61.6221003,26.4882269 62.063284,27.7091494 62.9456646,28.6500579 C63.782795,29.613369 64.8348484,30.0950174 66.1018564,30.0950174 C66.9389868,30.0950174 67.6969177,29.8709949 68.3756721,29.4229432 C69.0544264,28.9748915 69.4956101,28.4036342 69.6992364,27.7091541 L70.0046743,26.801854 C70.1404252,26.4658152 70.3383922,26.1969883 70.5985814,25.995365 C70.8587705,25.7937417 71.181174,25.6929316 71.5658014,25.6929316 C72.7423089,25.6929316 73.3305539,26.2529878 73.3305539,27.373117 C73.3305539,28.8964927 72.5386857,30.2406276 70.9549256,31.405562 C69.439041,32.5256912 67.7308682,33.0857474 65.8303561,33.0857474 C63.3868405,33.0857474 61.4524197,32.2904676 60.0270356,30.6998841 C58.6242767,29.1093007 57.9229077,27.0034894 57.9229077,24.382387 C57.9229077,21.7388821 58.6695263,19.5434618 60.1627858,17.7960603 C61.6786705,16.0710613 63.6583409,15.2085747 66.1018564,15.2085747 C67.2331137,15.2085747 68.2399175,15.3877927 69.1222981,15.7462341 C70.0046787,16.1046754 70.7965469,16.6311282 71.4979264,17.3256083 C72.9006853,18.7817763 73.6020542,20.5851573 73.6020542,22.7358053 Z M69.9028617,21.9293163 C69.9028617,20.9212001 69.5295524,20.0475124 68.7829226,19.3082271 C67.9910426,18.5689418 67.1086752,18.1993048 66.135794,18.1993048 C65.1402877,18.1993048 64.167421,18.6025452 63.217165,19.4090382 C62.3574095,20.1931287 61.9275382,21.033213 61.9275382,21.9293163 L69.9028617,21.9293163 Z M83.6136305,15.2085747 C84.473386,15.2085747 85.2595979,15.3373877 85.97229,15.5950174 C86.684982,15.8526471 87.3128203,16.2054825 87.8558238,16.6535342 L87.8558238,14.8725377 C87.8558238,14.4692911 87.8501676,14.1500591 87.838855,13.914832 C87.8275425,13.6796048 87.8105739,13.5059874 87.7879487,13.3939745 C87.7200733,13.1027409 87.6295741,12.9123218 87.5164483,12.8227115 C87.4259478,12.8451141 87.2958551,12.8619157 87.1261666,12.873117 C86.956478,12.8843183 86.8263853,12.8899189 86.7358848,12.8899189 L86.8037599,12.8899189 C86.668009,12.9347241 86.526604,12.9627269 86.3795405,12.9739282 C86.2324771,12.9851294 86.1023845,12.99073 85.9892587,12.99073 C84.8127512,12.99073 84.2245063,12.4978806 84.2245063,11.5121669 C84.2245063,10.5040506 84.9485001,10 86.3965093,10 L86.6340721,10 C86.7471979,10 86.8603219,10.0112011 86.9734476,10.0336037 C87.041323,10.0336037 87.1091974,10.0392043 87.1770729,10.0504056 C87.2449483,10.0616069 87.3128227,10.0672074 87.3806982,10.0672074 L88.3988246,10.1680185 C88.4440748,10.1680185 88.5402303,10.162418 88.6872937,10.1512167 C88.8343571,10.1400154 88.9870746,10.1232137 89.1454506,10.1008111 C89.3264517,10.0784085 89.4904816,10.0616069 89.637545,10.0504056 C89.7846084,10.0392043 89.9260135,10.0336037 90.0617643,10.0336037 C91.0346455,10.0336037 91.5210788,10.6160622 91.5210788,11.7809965 L91.5210788,12.2850521 C91.4984537,12.3074547 91.4871413,12.5314772 91.4871413,12.9571263 C91.4871413,13.0691392 91.4814851,13.1979521 91.4701725,13.3435689 C91.4588599,13.4891857 91.4532037,13.6404009 91.4532037,13.797219 C91.4532037,13.9764397 91.4192665,14.8053229 91.3513911,16.2838934 C91.3513911,16.3959063 91.3457349,16.5191187 91.3344223,16.6535342 C91.3231098,16.7879497 91.3174536,16.8999609 91.3174536,16.9895713 C91.2948284,17.3480126 91.283516,17.6672446 91.283516,17.9472769 L91.283516,21.7949015 L91.3513911,27.1042874 C91.3740163,27.8211701 91.3966411,28.3812263 91.4192662,28.7844728 C91.4418913,29.1877193 91.4758286,29.4565463 91.5210788,29.5909618 C91.5210788,29.7253773 91.6002657,29.792584 91.7586417,29.792584 C91.8717674,29.792584 91.9679228,29.7869834 92.0471108,29.7757822 C92.1262988,29.7645809 92.2111418,29.7477792 92.3016424,29.7253766 C92.3695178,29.7253766 92.4373923,29.719776 92.5052677,29.7085747 C92.5731431,29.6973734 92.6297051,29.6917729 92.6749554,29.6917729 C92.7202057,29.6693703 92.7937363,29.6581692 92.8955495,29.6581692 L93.1161435,29.6581692 C94.2700259,29.6581692 94.8469584,30.1510186 94.8469584,31.1367323 C94.8469584,32.1672512 94.1795267,32.6825029 92.8446432,32.6825029 C92.7315174,32.6825029 92.5788,32.6769023 92.3864863,32.665701 C92.1941726,32.6544998 92.0075179,32.6376981 91.8265168,32.6152955 C91.7360162,32.6152955 91.6398608,32.6096949 91.5380476,32.5984936 C91.4362345,32.5872923 91.3287666,32.5704906 91.2156409,32.5480881 C91.1025152,32.5256855 90.9780788,32.5144844 90.8423279,32.5144844 C90.8197028,32.5144844 90.797078,32.5200849 90.7744528,32.5312862 C90.7518277,32.5424875 90.7178905,32.5480881 90.6726402,32.5480881 L90.5029524,32.5480881 C90.435077,32.5480881 90.3445778,32.5592892 90.2314521,32.5816918 L90.2993272,32.5816918 C90.0278254,32.6488995 89.7563278,32.6825029 89.484826,32.6825029 C88.7608214,32.6825029 88.3083253,32.3352681 88.1273242,31.6407879 C86.996067,32.6040991 85.5141423,33.0857474 83.6815056,33.0857474 C81.2832403,33.0857474 79.3940691,32.2456631 78.0139353,30.5654693 C76.5885512,28.9300807 75.8758699,26.7794649 75.8758699,24.1135574 C75.8758699,22.8142075 76.0625245,21.6156872 76.4358394,20.5179606 C76.8091543,19.420234 77.3238686,18.4793396 77.9799978,17.6952491 C79.3827567,16.0374579 81.2606155,15.2085747 83.6136305,15.2085747 Z M87.6521985,26.8354577 C87.6974488,26.4770164 87.731386,26.0793765 87.7540112,25.6425261 C87.7766363,25.2056757 87.7879487,24.7184268 87.7879487,24.1807648 C87.7879487,23.4862847 87.7709801,22.9094268 87.7370424,22.4501738 C87.7031047,21.9909208 87.6635113,21.6380854 87.618261,21.391657 C87.4372598,20.3611381 87.0413257,19.6106628 86.4304469,19.1402086 C85.6159417,18.5129362 84.7448867,18.1993048 83.8172558,18.1993048 C82.4823723,18.1993048 81.4416312,18.720157 80.6950015,19.7618772 C79.9483717,20.8035973 79.5750624,22.2317406 79.5750624,24.0463499 C79.5750624,25.9505696 79.9653403,27.4347185 80.7459078,28.4988413 C81.5264753,29.562964 82.5954973,30.0950174 83.953006,30.0950174 C84.9711374,30.0950174 85.8139114,29.7981876 86.4813532,29.2045191 C87.1487949,28.6108506 87.5390728,27.8211714 87.6521985,26.8354577 Z M104.529141,25.6593279 C104.574391,24.4943936 105.151324,23.9119351 106.259956,23.9119351 C107.368588,23.9119351 107.922895,24.5503992 107.922895,25.8273465 C107.922895,27.037086 107.832396,28.0619888 107.651395,28.9020857 C107.470394,29.7421826 107.221521,30.4198506 106.904769,30.9351101 C105.999763,32.2792651 104.517839,32.9513326 102.45895,32.9513326 C101.508694,32.9513326 100.688545,32.7945168 99.9984783,32.4808806 C99.3084114,32.1672445 98.7597599,31.7191995 98.3525073,31.1367323 C97.7416284,30.2182264 97.4361936,28.7956836 97.4361936,26.8690614 L97.4361936,19.2410197 C97.4361936,19.0842016 97.4135688,19.0057937 97.3683185,19.0057937 L96.3501921,19.0057937 C95.8524389,19.0057937 95.4395362,18.8545786 95.1114716,18.5521437 C94.783407,18.2497088 94.6193772,17.8744711 94.6193772,17.4264195 C94.6193772,17.023173 94.783407,16.6591364 95.1114716,16.334299 C95.4395362,16.0094615 95.8185017,15.8470452 96.2483794,15.8470452 L97.5040687,15.8470452 L97.5040687,12.419467 C97.5040687,11.2993378 98.103626,10.7392816 99.3027586,10.7392816 C100.434016,10.7392816 100.999636,11.2993378 100.999636,12.419467 L100.999636,15.8134415 C100.999636,15.8358441 101.010948,15.8470452 101.033574,15.8470452 L104.529141,15.8470452 C105.705648,15.8470452 106.293893,16.3622969 106.293893,17.3928158 C106.293893,18.4681398 105.683024,19.0057937 104.461266,19.0057937 L100.897823,19.0057937 C100.965699,19.0505989 100.999636,19.1290068 100.999636,19.2410197 L100.999636,27.0706837 C100.999636,28.9973059 101.553944,29.9606025 102.662576,29.9606025 C103.861708,29.9606025 104.461266,29.2101272 104.461266,27.7091541 L104.529141,25.6593279 Z M125.827946,22.7358053 C125.827946,23.2510648 125.816633,23.6543052 125.794008,23.9455388 C125.771383,24.2367724 125.703509,24.4607949 125.590383,24.617613 C125.477257,24.7744311 125.313227,24.8696406 125.098289,24.9032445 C124.88335,24.9368484 124.583571,24.9536501 124.198944,24.9536501 L113.983742,24.9536501 C113.893241,24.9536501 113.847992,24.9648512 113.847992,24.9872538 C113.847992,26.4882269 114.289176,27.7091494 115.171556,28.6500579 C116.008686,29.613369 117.06074,30.0950174 118.327748,30.0950174 C119.164878,30.0950174 119.922809,29.8709949 120.601564,29.4229432 C121.280318,28.9748915 121.721502,28.4036342 121.925128,27.7091541 L122.230566,26.801854 C122.366317,26.4658152 122.564284,26.1969883 122.824473,25.995365 C123.084662,25.7937417 123.407066,25.6929316 123.791693,25.6929316 C124.9682,25.6929316 125.556445,26.2529878 125.556445,27.373117 C125.556445,28.8964927 124.764577,30.2406276 123.180817,31.405562 C121.664932,32.5256912 119.95676,33.0857474 118.056248,33.0857474 C115.612732,33.0857474 113.678311,32.2904676 112.252927,30.6998841 C110.850168,29.1093007 110.148799,27.0034894 110.148799,24.382387 C110.148799,21.7388821 110.895418,19.5434618 112.388677,17.7960603 C113.904562,16.0710613 115.884232,15.2085747 118.327748,15.2085747 C119.459005,15.2085747 120.465809,15.3877927 121.34819,15.7462341 C122.23057,16.1046754 123.022438,16.6311282 123.723818,17.3256083 C125.126577,18.7817763 125.827946,20.5851573 125.827946,22.7358053 Z M122.128753,21.9293163 C122.128753,20.9212001 121.755444,20.0475124 121.008814,19.3082271 C120.216934,18.5689418 119.334567,18.1993048 118.361686,18.1993048 C117.366179,18.1993048 116.393313,18.6025452 115.443057,19.4090382 C114.583301,20.1931287 114.15343,21.033213 114.15343,21.9293163 L122.128753,21.9293163 Z M136.497062,23.8447277 C135.795683,23.0606373 135.094314,22.2429552 134.392934,21.391657 C133.691555,20.5403588 132.990186,19.7226768 132.288806,18.9385863 C132.107805,18.6921579 131.881557,18.5689455 131.610055,18.5689455 L131.474305,18.5689455 C131.429055,18.5689455 131.349868,18.5913478 131.236742,18.636153 L130.795554,18.7369641 C130.727679,18.7593667 130.642836,18.7705678 130.541023,18.7705678 L130.252553,18.7705678 C129.166547,18.7705678 128.623551,18.2777183 128.623551,17.2920046 C128.623551,16.2838884 129.279671,15.7798378 130.591929,15.7798378 C130.614554,15.7798378 130.772928,15.7910389 131.067055,15.8134415 C131.361181,15.8358441 131.757116,15.8694474 132.254869,15.9142526 C132.300119,15.9142526 132.339712,15.9198532 132.37365,15.9310545 C132.407588,15.9422558 132.447181,15.9478563 132.492432,15.9478563 C132.696058,15.9702589 132.888369,15.98146 133.06937,15.98146 L133.544495,15.98146 C133.906498,15.98146 134.415556,15.9478567 135.071685,15.8806489 C135.705189,15.8134411 136.236872,15.7798378 136.66675,15.7798378 C137.911133,15.7798378 138.533315,16.2838884 138.533315,17.2920046 C138.533315,18.2777183 137.94507,18.7705678 136.768562,18.7705678 L136.497062,18.7705678 L138.703003,21.391657 L140.976818,18.7705678 C140.931568,18.7929704 140.891974,18.7985709 140.858037,18.7873696 C140.824099,18.7761683 140.795818,18.7705678 140.773193,18.7705678 C139.641936,18.7705678 139.076316,18.2553161 139.076316,17.2247972 C139.076316,16.8887585 139.18944,16.5639259 139.415691,16.2502897 C139.641942,15.9366535 140.071814,15.7798378 140.705318,15.7798378 C141.429322,15.7798378 142.096754,15.8134411 142.707633,15.8806489 C143.318512,15.9478567 143.816258,15.98146 144.200885,15.98146 C144.472387,15.98146 144.777822,15.9702589 145.117199,15.9478563 C145.456576,15.9254537 145.784636,15.8918504 146.101388,15.8470452 C146.327639,15.8246426 146.536919,15.8078409 146.729232,15.7966396 C146.921546,15.7854383 147.074263,15.7798378 147.187389,15.7798378 C148.477022,15.7798378 149.121829,16.2838884 149.121829,17.2920046 C149.121829,18.3001209 148.578834,18.8041715 147.492827,18.8041715 C147.311826,18.8041715 147.159109,18.7929704 147.03467,18.7705678 C146.910232,18.7481652 146.780139,18.7145618 146.644388,18.6697567 L146.033513,18.5353418 C145.694135,18.5353418 145.117203,18.9945879 144.302698,19.9130939 L140.841068,23.8447277 C141.655573,24.7856362 142.447441,25.709729 143.216696,26.6170336 C143.985951,27.5243383 144.777819,28.448431 145.592325,29.3893395 C145.795951,29.6581705 146.022199,29.792584 146.271075,29.792584 C146.316326,29.792584 146.3842,29.7869834 146.474701,29.7757822 C146.565201,29.7645809 146.667013,29.7477792 146.780139,29.7253766 C146.893264,29.702974 147.006388,29.6861723 147.119514,29.674971 C147.23264,29.6637697 147.345764,29.6581692 147.45889,29.6581692 C148.590147,29.6581692 149.155767,30.1398175 149.155767,31.1031286 C149.155767,32.1560501 148.522272,32.6825029 147.255264,32.6825029 L146.983764,32.6825029 L145.694137,32.5144844 C145.513136,32.4920818 145.303857,32.4752801 145.066293,32.4640788 C144.828729,32.4528775 144.551575,32.4472769 144.234823,32.4472769 C143.646569,32.4472769 143.069636,32.4808803 142.504008,32.5480881 L141.350131,32.6825029 L140.976818,32.6825029 C139.596684,32.6825029 138.906628,32.1896534 138.906628,31.2039397 C138.906628,30.1734209 139.48356,29.6581692 140.637443,29.6581692 C140.750568,29.6581692 140.880661,29.6637697 141.027725,29.674971 C141.174788,29.6861723 141.338818,29.702974 141.519819,29.7253766 L138.669065,26.2977984 L135.614686,29.7589803 C135.637311,29.7589803 135.65428,29.7533797 135.665592,29.7421784 C135.676905,29.7309772 135.693873,29.7253766 135.716498,29.7253766 C135.829624,29.702974 135.948404,29.6861723 136.072843,29.674971 C136.197281,29.6637697 136.316061,29.6581692 136.429187,29.6581692 C137.71882,29.6581692 138.363627,30.1734209 138.363627,31.2039397 C138.363627,32.1896534 137.71882,32.6825029 136.429187,32.6825029 L135.954061,32.6825029 L134.630497,32.5480881 C133.974368,32.4808803 133.431372,32.4472769 133.001495,32.4472769 C132.684743,32.4472769 132.243559,32.4808803 131.67793,32.5480881 C131.293303,32.5928932 130.965243,32.6264966 130.693742,32.6488992 C130.42224,32.6713018 130.195992,32.6825029 130.014991,32.6825029 C128.747983,32.6825029 128.114488,32.1672512 128.114488,31.1367323 C128.114488,30.1510186 128.680108,29.6581692 129.811365,29.6581692 C129.924491,29.6581692 130.031959,29.6637697 130.133772,29.674971 C130.235585,29.6861723 130.343053,29.702974 130.456179,29.7253766 C130.569304,29.7477792 130.671116,29.7589803 130.761617,29.7589803 L130.965242,29.7589803 C131.191493,29.7589803 131.632677,29.3893432 132.288806,28.6500579 L136.497062,23.8447277 Z M160.84301,25.6593279 C160.88826,24.4943936 161.465192,23.9119351 162.573824,23.9119351 C163.682457,23.9119351 164.236764,24.5503992 164.236764,25.8273465 C164.236764,27.037086 164.146265,28.0619888 163.965264,28.9020857 C163.784263,29.7421826 163.53539,30.4198506 163.218638,30.9351101 C162.313632,32.2792651 160.831707,32.9513326 158.772819,32.9513326 C157.822563,32.9513326 157.002414,32.7945168 156.312347,32.4808806 C155.62228,32.1672445 155.073629,31.7191995 154.666376,31.1367323 C154.055497,30.2182264 153.750062,28.7956836 153.750062,26.8690614 L153.750062,19.2410197 C153.750062,19.0842016 153.727438,19.0057937 153.682187,19.0057937 L152.664061,19.0057937 C152.166308,19.0057937 151.753405,18.8545786 151.42534,18.5521437 C151.097276,18.2497088 150.933246,17.8744711 150.933246,17.4264195 C150.933246,17.023173 151.097276,16.6591364 151.42534,16.334299 C151.753405,16.0094615 152.13237,15.8470452 152.562248,15.8470452 L153.817937,15.8470452 L153.817937,12.419467 C153.817937,11.2993378 154.417495,10.7392816 155.616627,10.7392816 C156.747885,10.7392816 157.313505,11.2993378 157.313505,12.419467 L157.313505,15.8134415 C157.313505,15.8358441 157.324817,15.8470452 157.347442,15.8470452 L160.84301,15.8470452 C162.019517,15.8470452 162.607762,16.3622969 162.607762,17.3928158 C162.607762,18.4681398 161.996892,19.0057937 160.775134,19.0057937 L157.211692,19.0057937 C157.279568,19.0505989 157.313505,19.1290068 157.313505,19.2410197 L157.313505,27.0706837 C157.313505,28.9973059 157.867812,29.9606025 158.976444,29.9606025 C160.175577,29.9606025 160.775134,29.2101272 160.775134,27.7091541 L160.84301,25.6593279 Z M170.324312,33.0857474 C169.600307,33.0857474 168.989437,32.8505238 168.491684,32.3800695 C167.993931,31.9096153 167.745058,31.3159557 167.745058,30.599073 C167.745058,29.9045929 167.993931,29.3165339 168.491684,28.8348783 C168.989437,28.3532228 169.600307,28.1123986 170.324312,28.1123986 C171.048316,28.1123986 171.659186,28.3532228 172.156939,28.8348783 C172.654692,29.3165339 172.903565,29.9045929 172.903565,30.599073 C172.903565,31.3159557 172.654692,31.9096153 172.156939,32.3800695 C171.659186,32.8505238 171.048316,33.0857474 170.324312,33.0857474 Z M183.741979,29.8597903 C183.72041,29.8596597 183.777102,29.8484589 183.912057,29.8261877 C184.047808,29.8037851 184.217494,29.7701818 184.42112,29.7253766 L184.387183,29.7589803 C184.455058,29.7365777 184.539901,29.7141755 184.641714,29.6917729 C184.743527,29.6693703 184.87362,29.6581692 185.031996,29.6581692 C186.208503,29.6581692 186.796748,30.1510186 186.796748,31.1367323 C186.796748,31.584784 186.610094,31.9544211 186.236779,32.2456547 C185.863464,32.5368883 185.393999,32.6825029 184.828371,32.6825029 C184.64737,32.6825029 184.421122,32.6713018 184.14962,32.6488992 C183.878118,32.6264966 183.561371,32.5928932 183.199368,32.5480881 C182.859991,32.5032829 182.565869,32.464079 182.316992,32.4304751 C182.068116,32.3968712 181.864492,32.3800695 181.706116,32.3800695 C181.45724,32.3800695 181.180086,32.3912706 180.874647,32.4136732 C180.569207,32.4360758 180.246804,32.4696792 179.907426,32.5144844 C179.500174,32.5592895 179.155146,32.5984935 178.872331,32.6320973 C178.589517,32.6657012 178.357613,32.6825029 178.176612,32.6825029 C176.954854,32.6825029 176.343984,32.1672512 176.343984,31.1367323 C176.343984,30.1510186 176.898292,29.6581692 178.006924,29.6581692 C178.052174,29.6581692 178.182267,29.6693703 178.397206,29.6917729 C178.612144,29.7141755 178.787487,29.7365777 178.923238,29.7589803 C179.081614,29.8037855 179.20605,29.8261877 179.296551,29.8261877 L179.500176,29.8261877 C179.681177,29.8261877 179.805613,29.2885338 179.873489,28.2132097 L179.873489,20.1147161 C179.805613,19.0617947 179.669865,18.5353418 179.466238,18.5353418 C179.420988,18.5353418 179.341801,18.546543 179.228676,18.5689455 C179.11555,18.5913481 178.979801,18.6249515 178.821425,18.6697567 C178.708299,18.7145618 178.578207,18.7425646 178.431143,18.7537659 C178.28408,18.7649672 178.1653,18.7705678 178.074799,18.7705678 C176.920917,18.7705678 176.343984,18.2777183 176.343984,17.2920046 C176.343984,16.2838884 177.000103,15.7798378 178.312362,15.7798378 L178.923238,15.7798378 C179.081614,15.7798378 179.194738,15.7910389 179.262613,15.8134415 C179.579365,15.8582467 179.845207,15.89185 180.060145,15.9142526 C180.275084,15.9366552 180.416489,15.9478563 180.484365,15.9478563 C180.529615,15.9478563 180.62577,15.9422558 180.772834,15.9310545 C180.919897,15.9198532 181.061302,15.9030515 181.197053,15.8806489 L182.079429,15.7798378 C183.052311,15.7798378 183.538744,16.339894 183.538744,17.4600232 L183.538744,17.9304751 C183.516119,18.0200854 183.504806,18.0928927 183.504806,18.1488992 L183.504806,18.2665122 C183.482181,18.3337199 183.470869,18.6473514 183.470869,19.207416 C183.470869,19.3642341 183.465213,19.5266504 183.4539,19.6946698 C183.442587,19.8626891 183.436931,20.0363066 183.436931,20.2155272 C183.414306,20.6635789 183.402994,21.1060233 183.402994,21.5428737 L183.402994,28.2300116 C183.402994,28.5324465 183.414306,28.7396673 183.436931,28.8516802 C183.504743,29.5231274 183.606427,29.8591609 183.741987,29.8597905 L183.741979,29.8597903 Z M181.163116,14.9733488 C180.506986,14.9733488 179.952679,14.7605274 179.500176,14.3348783 C179.047673,13.9092292 178.821425,13.3827764 178.821425,12.7555041 C178.821425,12.1282317 179.047673,11.6073794 179.500176,11.1929316 C179.952679,10.7784838 180.506986,10.571263 181.163116,10.571263 C181.819245,10.571263 182.379209,10.7784838 182.843024,11.1929316 C183.30684,11.6073794 183.538744,12.1282317 183.538744,12.7555041 C183.538744,13.3827764 183.30684,13.9092292 182.843024,14.3348783 C182.379209,14.7605274 181.819245,14.9733488 181.163116,14.9733488 Z M196.821051,33.0857474 C194.400161,33.0857474 192.46574,32.2680653 191.017731,30.6326767 C189.569722,28.9972881 188.845728,26.8354711 188.845728,24.1471611 C188.845728,21.4364484 189.569722,19.2858326 191.017731,17.6952491 C192.46574,16.0374579 194.434098,15.2085747 196.922864,15.2085747 C199.41163,15.2085747 201.3913,16.0150557 202.861935,17.6280417 C204.287319,19.2186252 205,21.3580399 205,24.0463499 C205,26.7794652 204.264694,28.9524832 202.794059,30.5654693 C201.323425,32.2456631 199.332442,33.0857474 196.821051,33.0857474 Z M196.990739,18.1993048 C195.63323,18.1993048 194.575521,18.6809531 193.817578,19.6442642 C193.059636,20.6075753 192.646733,21.9853136 192.578858,23.7775203 L192.578858,24.1471611 C192.578858,26.0065755 192.952167,27.4627217 193.698797,28.5156431 C194.445427,29.5685646 195.49748,30.0950174 196.854989,30.0950174 C198.235123,30.0950174 199.326769,29.5741651 200.129962,28.532445 C200.933155,27.4907248 201.334745,26.017777 201.334745,24.1135574 C201.334745,20.1707026 199.886757,18.1993048 196.990739,18.1993048 Z" id="typedtext.io" fill="#FFFFFF" fill-rule="nonzero"></path>
    </g>
</svg>