<?xml version="1.0" encoding="UTF-8"?>
<svg width="93px" height="70px" viewBox="0 0 93 70" version="1.1" xmlns="http://www.w3.org/2000/svg" xmlns:xlink="http://www.w3.org/1999/xlink">
    <title>typedtext-logo</title>
    <g id="Welcome" stroke="none" stroke-width="1" fill="none" fill-rule="evenodd">
        <g id="Desktop" transform="translate(-150.000000, 0.000000)">
            <g id="Logo" transform="translate(150.000000, 0.000000)">
                <rect id="Rectangle" fill="#FFFFFF" x="15" y="15" width="63" height="40" rx="6"></rect>
                <rect id="Rectangle" fill="#D8D8D8" x="22" y="22" width="31" height="6" rx="2"></rect>
                <rect id="Rectangle" fill="#D8D8D8" x="22" y="42" width="23" height="6" rx="2"></rect>
                <rect id="Rectangle" fill="#D8D8D8" x="22" y="32" width="18" height="6" rx="2"></rect>
                <g id="Checkmark" transform="translate(51.000000, 25.000000)" fill="#00A22D">
                    <path d="M18.1416536,2.75049785 L19.2330199,3.83686095 C20.0158608,4.6161131 20.01877,5.88243971 19.2395179,6.66528062 L19.2330199,6.67177863 L9.70431519,16.1567713 L9.70431519,16.1567713 C9.70215416,16.1589423 9.69998815,16.1611083 9.69781717,16.1632693 L8.60645094,17.2496325 C8.27790414,17.5766731 7.86407855,17.7660124 7.43678788,17.8176504 L7.27606297,17.8305599 L7.27606297,17.8305599 L7.11491727,17.8305599 C6.63169057,17.8111957 6.15414445,17.6175532 5.7845293,17.2496325 L0.766849244,12.2549548 C-0.0159916571,11.4757027 -0.0189009191,10.2093761 0.760351225,9.42653515 L0.766849244,9.42003713 L1.85821547,8.33367403 C2.63851412,7.55695248 3.89983846,7.55695248 4.68013711,8.33367403 L7.195,10.837 L15.319732,2.75049785 C16.1000306,1.9737763 17.361355,1.9737763 18.1416536,2.75049785 Z" id="Combined-Shape"></path>
                </g>
            </g>
        </g>
    </g>
</svg>