<?xml version="1.0" encoding="UTF-8"?>
<svg width="79px" height="50px" viewBox="0 0 79 50" version="1.1" xmlns="http://www.w3.org/2000/svg" xmlns:xlink="http://www.w3.org/1999/xlink">
    <!-- Generator: Sketch 53.2 (72643) - https://sketchapp.com -->
    <title>typedtext-image</title>
    <desc>Created with Sketch.</desc>
    <g id="typedtext-image" stroke="none" stroke-width="1" fill="none" fill-rule="evenodd">
        <rect id="Rectangle" fill="#FFFFFF" x="0" y="0" width="79" height="50" rx="6"></rect>
        <rect id="Rectangle" fill="#D8D8D8" x="9" y="9" width="38" height="7" rx="2"></rect>
        <rect id="Rectangle" fill="#D8D8D8" x="9" y="34" width="28" height="7" rx="2"></rect>
        <rect id="Rectangle" fill="#D8D8D8" x="9" y="22" width="22" height="7" rx="2"></rect>
        <path d="M52.4350288,22.9350288 L67.4350288,22.9350288 C68.5395983,22.9350288 69.4350288,23.8304593 69.4350288,24.9350288 L69.4350288,27.9350288 C69.4350288,29.0395983 68.5395983,29.9350288 67.4350288,29.9350288 L47.4350288,29.9350288 C46.8827441,29.9350288 46.3827441,29.7111712 46.0208153,29.3492424 C45.6588865,28.9873136 45.4350288,28.4873136 45.4350288,27.9350288 L45.4350288,17.9350288 C45.4350288,16.8304593 46.3304593,15.9350288 47.4350288,15.9350288 L50.4350288,15.9350288 C51.5395983,15.9350288 52.4350288,16.8304593 52.4350288,17.9350288 L52.4350288,22.9350288 Z" id="Combined-Shape" fill="#00A22D" transform="translate(57.435029, 22.935029) rotate(-45.000000) translate(-57.435029, -22.935029) "></path>
    </g>
</svg>