<?xml version="1.0" encoding="UTF-8"?>
<svg width="174px" height="70px" viewBox="0 0 174 70" version="1.1" xmlns="http://www.w3.org/2000/svg" xmlns:xlink="http://www.w3.org/1999/xlink">
    <title>typedtext-title</title>
    <g id="Welcome" stroke="none" stroke-width="1" fill="none" fill-rule="evenodd">
        <g id="Desktop" transform="translate(-243.000000, 0.000000)" fill="#FFFFFF" fill-rule="nonzero">
            <g id="Outlines" transform="translate(243.000000, 0.000000)">
                <path d="M11.356,44.336 C13.0546667,44.336 14.2773333,43.776 15.024,42.656 C15.2853333,42.2266667 15.4906667,41.662 15.64,40.962 C15.7893333,40.262 15.864,39.408 15.864,38.4 C15.864,37.336 15.4066667,36.804 14.492,36.804 C13.5773333,36.804 13.1013333,37.2893333 13.064,38.26 L13.064,38.26 L13.008,39.968 C13.008,41.2186667 12.5133333,41.844 11.524,41.844 C10.6093333,41.844 10.152,41.0413333 10.152,39.436 L10.152,39.436 L10.152,32.912 C10.152,32.8186667 10.124,32.7533333 10.068,32.716 L10.068,32.716 L13.008,32.716 C14.016,32.716 14.52,32.268 14.52,31.372 C14.52,30.5133333 14.0346667,30.084 13.064,30.084 L13.064,30.084 L10.18,30.084 C10.1613333,30.084 10.152,30.0746667 10.152,30.056 L10.152,30.056 L10.152,27.228 C10.152,26.2946667 9.68533333,25.828 8.752,25.828 C7.76266667,25.828 7.268,26.2946667 7.268,27.228 L7.268,27.228 L7.268,30.084 L6.232,30.084 C5.87733333,30.084 5.56466667,30.2193333 5.294,30.49 C5.02333333,30.7606667 4.888,31.064 4.888,31.4 C4.888,31.7733333 5.02333333,32.086 5.294,32.338 C5.56466667,32.59 5.90533333,32.716 6.316,32.716 L6.316,32.716 L7.156,32.716 C7.19333333,32.716 7.212,32.7813333 7.212,32.912 L7.212,32.912 L7.212,39.268 C7.212,40.8733333 7.464,42.0586667 7.968,42.824 C8.304,43.3093333 8.75666667,43.6826667 9.326,43.944 C9.89533333,44.2053333 10.572,44.336 11.356,44.336 Z M17.1205714,32.5165714 C17.1415238,32.5108571 17.222,32.498 17.362,32.478 C17.558,32.45 17.7306667,32.4266667 17.88,32.408 C17.9733333,32.3893333 18.0526667,32.3753333 18.118,32.366 C18.1833333,32.3566667 18.2346667,32.352 18.272,32.352 C18.4213333,32.352 18.6266667,32.6693333 18.888,33.304 C18.9253333,33.4533333 18.9626667,33.5793333 19,33.682 C19.0373333,33.7846667 19.0746667,33.8733333 19.112,33.948 C19.1493333,34.0226667 19.1773333,34.0973333 19.196,34.172 L19.196,34.172 L22.108,41.536 C22.5746667,42.6933333 22.808,43.468 22.808,43.86 C22.808,44.6253333 22.472,45.316 21.8,45.932 C21.1466667,46.5666667 20.4093333,46.884 19.588,46.884 C19.4013333,46.884 19.2473333,46.8793333 19.126,46.87 C19.0046667,46.8606667 18.888,46.8186667 18.776,46.744 C19.1306667,46.5013333 19.308,46.1186667 19.308,45.596 C19.308,45.1293333 19.1353333,44.742 18.79,44.434 C18.4446667,44.126 18.0013333,43.972 17.46,43.972 C16.8066667,43.972 16.2793333,44.182 15.878,44.602 C15.4766667,45.022 15.276,45.5586667 15.276,46.212 C15.276,47.0893333 15.7053333,47.8453333 16.564,48.48 C17.348,49.0773333 18.3466667,49.376 19.56,49.376 C21.52,49.376 23.1346667,48.564 24.404,46.94 C25.188,45.932 25.9626667,44.448 26.728,42.488 L26.728,42.488 L30.34,33.472 C30.62,32.7253333 30.8253333,32.352 30.956,32.352 C30.9746667,32.3706667 31.0026667,32.38 31.04,32.38 C31.0773333,32.3986667 31.1193333,32.408 31.166,32.408 C31.2126667,32.408 31.264,32.4173333 31.32,32.436 C31.3946667,32.4733333 31.5626667,32.492 31.824,32.492 C32.7013333,32.492 33.14,32.0813333 33.14,31.26 C33.14,30.4386667 32.6173333,30.028 31.572,30.028 C31.404,30.028 31.2033333,30.0373333 30.97,30.056 C30.7366667,30.0746667 30.4706667,30.1026667 30.172,30.14 C29.8733333,30.1773333 29.6213333,30.2006667 29.416,30.21 C29.2106667,30.2193333 29.0426667,30.224 28.912,30.224 L28.506,30.224 C28.3846667,30.224 28.2586667,30.2146667 28.128,30.196 L28.128,30.196 L27.176,30.056 C27.1386667,30.056 27.1153333,30.0513333 27.106,30.042 C27.0966667,30.0326667 27.0826667,30.028 27.064,30.028 C26.9893333,30.0093333 26.9053333,30 26.812,30 L26.812,30 L26.616,30 C25.5706667,30 25.048,30.42 25.048,31.26 C25.048,32.0813333 25.4866667,32.492 26.364,32.492 C26.4013333,32.492 26.4386667,32.4873333 26.476,32.478 C26.5133333,32.4686667 26.5506667,32.464 26.588,32.464 C26.6253333,32.464 26.686,32.4593333 26.77,32.45 C26.854,32.4406667 26.9333333,32.436 27.008,32.436 C27.1573333,32.3986667 27.2973333,32.38 27.428,32.38 C27.5213333,32.38 27.568,32.408 27.568,32.464 C27.568,32.5946667 27.54,32.7533333 27.484,32.94 L27.484,32.94 L27.484,32.912 C27.036,34.2 26.5693333,35.4693333 26.084,36.72 C25.5986667,37.9706667 25.1226667,39.24 24.656,40.528 L24.656,40.528 L22.052,32.772 C21.996,32.66 21.968,32.548 21.968,32.436 C22.024,32.436 22.0846667,32.4406667 22.15,32.45 C22.2153333,32.4593333 22.276,32.464 22.332,32.464 C22.4253333,32.4826667 22.5233333,32.4966667 22.626,32.506 C22.7286667,32.5153333 22.8173333,32.52 22.892,32.52 C23.8626667,32.52 24.348,32.1 24.348,31.26 C24.348,30.4386667 23.8253333,30.028 22.78,30.028 C22.5746667,30.028 22.192,30.056 21.632,30.112 C21.2773333,30.1493333 20.9366667,30.1773333 20.61,30.196 C20.2833333,30.2146667 19.9613333,30.224 19.644,30.224 C19.588,30.224 19.5133333,30.2146667 19.42,30.196 L19.42,30.196 L19.112,30.196 C18.944,30.1773333 18.7806667,30.154 18.622,30.126 C18.4633333,30.098 18.3,30.0746667 18.132,30.056 C18.076,30.0373333 17.9826667,30.028 17.852,30.028 L17.852,30.028 L17.46,30.028 C16.34,30.028 15.78,30.448 15.78,31.288 C15.78,32.1093333 16.228,32.52 17.124,32.52 L17.115,32.52 L17.1205714,32.5165714 Z M39.972,48.76 C41.0173333,48.76 41.54,48.34 41.54,47.5 C41.54,46.6786667 41.12,46.268 40.28,46.268 L40.28,46.268 L40.2628889,46.2711111 C40.2276296,46.2752593 40.1446667,46.2835556 40.014,46.296 C39.818,46.3146667 39.6546667,46.3333333 39.524,46.352 C39.3373333,46.3893333 39.2066667,46.408 39.132,46.408 C38.9826667,46.408 38.8706667,46.2306667 38.796,45.876 L38.796,45.876 L38.796,45.904 C38.7773333,45.8106667 38.768,45.6613333 38.768,45.456 L38.768,45.456 L38.768,43.44 C39.664,44.112 40.756,44.448 42.044,44.448 C43.0333333,44.448 43.9293333,44.2706667 44.732,43.916 C45.5346667,43.5613333 46.2253333,43.0293333 46.804,42.32 C47.3453333,41.6106667 47.7793333,40.78 48.106,39.828 C48.4326667,38.876 48.596,37.84 48.596,36.72 C48.596,35.6186667 48.4513333,34.6246667 48.162,33.738 C47.8726667,32.8513333 47.4526667,32.1 46.902,31.484 C46.3513333,30.868 45.6933333,30.392 44.928,30.056 C44.1626667,29.72 43.304,29.552 42.352,29.552 C40.9333333,29.552 39.7293333,29.9906667 38.74,30.868 C38.6466667,30.308 38.2826667,30.028 37.648,30.028 L37.648,30.028 L37.34,30.028 C37.228,30.028 37.0973333,30.0373333 36.948,30.056 C36.8173333,30.0746667 36.6866667,30.0886667 36.556,30.098 C36.4253333,30.1073333 36.332,30.112 36.276,30.112 L36.276,30.112 L36.066,30.112 C35.982,30.112 35.8746667,30.1026667 35.744,30.084 C35.688,30.084 35.6273333,30.0793333 35.562,30.07 C35.4966667,30.0606667 35.4266667,30.056 35.352,30.056 C35.2586667,30.0373333 35.1466667,30.028 35.016,30.028 L35.016,30.028 L34.68,30.028 C33.5973333,30.028 33.056,30.4293333 33.056,31.232 C33.056,32.072 33.532,32.492 34.484,32.492 C34.6333333,32.492 34.764,32.4826667 34.876,32.464 C34.988,32.4453333 35.1093333,32.4173333 35.24,32.38 C35.4266667,32.324 35.5666667,32.296 35.66,32.296 C35.7906667,32.296 35.8653333,32.5853333 35.884,33.164 C35.884,34.8626667 35.8793333,36.566 35.87,38.274 C35.8606667,39.982 35.856,41.6853333 35.856,43.384 C35.8373333,44.1306667 35.8186667,44.7326667 35.8,45.19 C35.7813333,45.6473333 35.7533333,45.9786667 35.716,46.184 C35.6786667,46.3333333 35.6226667,46.408 35.548,46.408 C35.4173333,46.408 35.2306667,46.3706667 34.988,46.296 C34.876,46.2773333 34.7686667,46.2633333 34.666,46.254 C34.5633333,46.2446667 34.4653333,46.24 34.372,46.24 C33.476,46.24 33.028,46.6413333 33.028,47.444 C33.028,47.8173333 33.1773333,48.13 33.476,48.382 C33.7746667,48.634 34.1386667,48.76 34.568,48.76 C34.68,48.76 34.848,48.7506667 35.072,48.732 C35.296,48.7133333 35.548,48.6853333 35.828,48.648 C35.8653333,48.648 35.898,48.6433333 35.926,48.634 C35.954,48.6246667 35.9866667,48.62 36.024,48.62 C36.1733333,48.6013333 36.332,48.5873333 36.5,48.578 C36.668,48.5686667 36.8453333,48.564 37.032,48.564 C37.7413333,48.564 38.3106667,48.592 38.74,48.648 L38.74,48.648 L38.712,48.648 C38.9733333,48.6853333 39.2113333,48.7133333 39.426,48.732 C39.6406667,48.7506667 39.8226667,48.76 39.972,48.76 Z M41.988,41.956 C41.6333333,41.956 41.2973333,41.9046667 40.98,41.802 C40.6626667,41.6993333 40.3733333,41.564 40.112,41.396 C39.888,41.228 39.6873333,41.0413333 39.51,40.836 C39.3326667,40.6306667 39.2066667,40.4066667 39.132,40.164 C39.0386667,39.9026667 38.9686667,39.5666667 38.922,39.156 C38.8753333,38.7453333 38.852,38.2506667 38.852,37.672 L38.852,37.672 L38.852,37.336 C38.8706667,37.2613333 38.88,37.182 38.88,37.098 L38.88,37.098 L38.88,36.888 C38.8986667,36.44 38.9266667,36.0153333 38.964,35.614 C39.0013333,35.2126667 39.0666667,34.8253333 39.16,34.452 C39.3093333,33.7426667 39.678,33.164 40.266,32.716 C40.854,32.268 41.512,32.044 42.24,32.044 C44.4426667,32.044 45.544,33.6866667 45.544,36.972 C45.544,38.5773333 45.236,39.8093333 44.62,40.668 C44.004,41.5266667 43.1266667,41.956 41.988,41.956 Z M57.136,44.448 C58.704,44.448 60.1133333,43.9813333 61.364,43.048 C62.6706667,42.0773333 63.324,40.9573333 63.324,39.688 C63.324,38.7546667 62.8386667,38.288 61.868,38.288 C61.5506667,38.288 61.2846667,38.372 61.07,38.54 C60.8553333,38.708 60.692,38.932 60.58,39.212 L60.58,39.212 L60.328,39.968 C60.16,40.5466667 59.796,41.0226667 59.236,41.396 C58.676,41.7693333 58.0506667,41.956 57.36,41.956 C56.3146667,41.956 55.4466667,41.5546667 54.756,40.752 C54.028,39.968 53.664,38.9506667 53.664,37.7 C53.664,37.6813333 53.7013333,37.672 53.776,37.672 L53.776,37.672 L62.204,37.672 C62.5213333,37.672 62.7686667,37.658 62.946,37.63 C63.1233333,37.602 63.2586667,37.5226667 63.352,37.392 C63.4453333,37.2613333 63.5013333,37.0746667 63.52,36.832 C63.5386667,36.5893333 63.548,36.2533333 63.548,35.824 C63.548,34.032 62.9693333,32.5293333 61.812,31.316 C61.2333333,30.7373333 60.58,30.2986667 59.852,30 C59.124,29.7013333 58.2933333,29.552 57.36,29.552 C55.344,29.552 53.7106667,30.2706667 52.46,31.708 C51.228,33.164 50.612,34.9933333 50.612,37.196 C50.612,39.38 51.1906667,41.1346667 52.348,42.46 C53.524,43.7853333 55.12,44.448 57.136,44.448 Z M60.496,35.152 L53.916,35.152 C53.916,34.4053333 54.2706667,33.7053333 54.98,33.052 C55.764,32.38 56.5666667,32.044 57.388,32.044 C58.1906667,32.044 58.9186667,32.352 59.572,32.968 C60.188,33.584 60.496,34.312 60.496,35.152 L60.496,35.152 Z M71.864,44.448 C73.376,44.448 74.5986667,44.0466667 75.532,43.244 C75.6813333,43.8226667 76.0546667,44.112 76.652,44.112 C76.876,44.112 77.1,44.084 77.324,44.028 L77.324,44.028 L77.268,44.028 C77.3613333,44.0093333 77.436,44 77.492,44 L77.492,44 L77.632,44 C77.6693333,44 77.6973333,43.9953333 77.716,43.986 C77.7346667,43.9766667 77.7533333,43.972 77.772,43.972 C77.884,43.972 77.9866667,43.9813333 78.08,44 C78.1733333,44.0186667 78.262,44.0326667 78.346,44.042 C78.43,44.0513333 78.5093333,44.056 78.584,44.056 C78.7333333,44.0746667 78.8873333,44.0886667 79.046,44.098 C79.2046667,44.1073333 79.3306667,44.112 79.424,44.112 C80.5253333,44.112 81.076,43.6826667 81.076,42.824 C81.076,42.0026667 80.6,41.592 79.648,41.592 L79.648,41.592 L79.466,41.592 C79.382,41.592 79.3213333,41.6013333 79.284,41.62 C79.2466667,41.62 79.2,41.6246667 79.144,41.634 C79.088,41.6433333 79.032,41.648 78.976,41.648 C78.9013333,41.6666667 78.8313333,41.6806667 78.766,41.69 C78.7006667,41.6993333 78.6213333,41.704 78.528,41.704 C78.3973333,41.704 78.332,41.648 78.332,41.536 C78.2946667,41.424 78.2666667,41.2 78.248,40.864 C78.2293333,40.528 78.2106667,40.0613333 78.192,39.464 L78.192,39.464 L78.136,35.04 L78.136,31.834 C78.136,31.6006667 78.1453333,31.3346667 78.164,31.036 C78.164,30.9613333 78.1686667,30.868 78.178,30.756 C78.1873333,30.644 78.192,30.5413333 78.192,30.448 C78.248,29.216 78.276,28.5253333 78.276,28.376 C78.276,28.2453333 78.2806667,28.1193333 78.29,27.998 C78.2993333,27.8766667 78.304,27.7693333 78.304,27.676 C78.304,27.3213333 78.3133333,27.1346667 78.332,27.116 L78.332,27.116 L78.332,26.696 C78.332,25.7253333 77.9306667,25.24 77.128,25.24 C77.016,25.24 76.8993333,25.2446667 76.778,25.254 C76.6566667,25.2633333 76.5213333,25.2773333 76.372,25.296 C76.2413333,25.3146667 76.1153333,25.3286667 75.994,25.338 C75.8726667,25.3473333 75.7933333,25.352 75.756,25.352 L75.756,25.352 L74.916,25.268 C74.86,25.268 74.804,25.2633333 74.748,25.254 C74.692,25.2446667 74.636,25.24 74.58,25.24 C74.4866667,25.2213333 74.3933333,25.212 74.3,25.212 L74.3,25.212 L74.104,25.212 C72.9093333,25.212 72.312,25.632 72.312,26.472 C72.312,27.2933333 72.7973333,27.704 73.768,27.704 C73.8613333,27.704 73.9686667,27.6993333 74.09,27.69 C74.2113333,27.6806667 74.328,27.6573333 74.44,27.62 L74.44,27.62 C74.5123333,27.6176667 74.601,27.613 74.706,27.606 C74.846,27.5966667 74.9533333,27.5826667 75.028,27.564 C75.1213333,27.6386667 75.196,27.7973333 75.252,28.04 C75.2706667,28.1333333 75.2846667,28.278 75.294,28.474 C75.3033333,28.67 75.308,28.936 75.308,29.272 L75.308,29.272 L75.308,30.756 C74.86,30.3826667 74.342,30.0886667 73.754,29.874 C73.166,29.6593333 72.5173333,29.552 71.808,29.552 C69.8666667,29.552 68.3173333,30.2426667 67.16,31.624 C66.6186667,32.2773333 66.194,33.0613333 65.886,33.976 C65.578,34.8906667 65.424,35.8893333 65.424,36.972 C65.424,39.1933333 66.012,40.9853333 67.188,42.348 C68.3266667,43.748 69.8853333,44.448 71.864,44.448 Z M72.088,41.956 C70.968,41.956 70.086,41.5126667 69.442,40.626 C68.798,39.7393333 68.476,38.5026667 68.476,36.916 C68.476,35.404 68.784,34.214 69.4,33.346 C70.016,32.478 70.8746667,32.044 71.976,32.044 C72.7413333,32.044 73.46,32.3053333 74.132,32.828 C74.636,33.22 74.9626667,33.8453333 75.112,34.704 C75.1493333,34.9093333 75.182,35.2033333 75.21,35.586 C75.238,35.9686667 75.252,36.4493333 75.252,37.028 C75.252,37.476 75.2426667,37.882 75.224,38.246 C75.2053333,38.61 75.1773333,38.9413333 75.14,39.24 C75.0466667,40.0613333 74.7246667,40.7193333 74.174,41.214 C73.6233333,41.7086667 72.928,41.956 72.088,41.956 Z M87.768,44.336 C89.4666667,44.336 90.6893333,43.776 91.436,42.656 C91.6973333,42.2266667 91.9026667,41.662 92.052,40.962 C92.2013333,40.262 92.276,39.408 92.276,38.4 C92.276,37.336 91.8186667,36.804 90.904,36.804 C89.9893333,36.804 89.5133333,37.2893333 89.476,38.26 L89.476,38.26 L89.42,39.968 C89.42,41.2186667 88.9253333,41.844 87.936,41.844 C87.0213333,41.844 86.564,41.0413333 86.564,39.436 L86.564,39.436 L86.564,32.912 C86.564,32.8186667 86.536,32.7533333 86.48,32.716 L86.48,32.716 L89.42,32.716 C90.428,32.716 90.932,32.268 90.932,31.372 C90.932,30.5133333 90.4466667,30.084 89.476,30.084 L89.476,30.084 L86.592,30.084 C86.5733333,30.084 86.564,30.0746667 86.564,30.056 L86.564,30.056 L86.564,27.228 C86.564,26.2946667 86.0973333,25.828 85.164,25.828 C84.1746667,25.828 83.68,26.2946667 83.68,27.228 L83.68,27.228 L83.68,30.084 L82.644,30.084 C82.2893333,30.084 81.9766667,30.2193333 81.706,30.49 C81.4353333,30.7606667 81.3,31.064 81.3,31.4 C81.3,31.7733333 81.4353333,32.086 81.706,32.338 C81.9766667,32.59 82.3173333,32.716 82.728,32.716 L82.728,32.716 L83.568,32.716 C83.6053333,32.716 83.624,32.7813333 83.624,32.912 L83.624,32.912 L83.624,39.268 C83.624,40.8733333 83.876,42.0586667 84.38,42.824 C84.716,43.3093333 85.1686667,43.6826667 85.738,43.944 C86.3073333,44.2053333 86.984,44.336 87.768,44.336 Z M99.92,44.448 C101.488,44.448 102.897333,43.9813333 104.148,43.048 C105.454667,42.0773333 106.108,40.9573333 106.108,39.688 C106.108,38.7546667 105.622667,38.288 104.652,38.288 C104.334667,38.288 104.068667,38.372 103.854,38.54 C103.639333,38.708 103.476,38.932 103.364,39.212 L103.364,39.212 L103.112,39.968 C102.944,40.5466667 102.58,41.0226667 102.02,41.396 C101.46,41.7693333 100.834667,41.956 100.144,41.956 C99.0986667,41.956 98.2306667,41.5546667 97.54,40.752 C96.812,39.968 96.448,38.9506667 96.448,37.7 C96.448,37.6813333 96.4853333,37.672 96.56,37.672 L96.56,37.672 L104.988,37.672 C105.305333,37.672 105.552667,37.658 105.73,37.63 C105.907333,37.602 106.042667,37.5226667 106.136,37.392 C106.229333,37.2613333 106.285333,37.0746667 106.304,36.832 C106.322667,36.5893333 106.332,36.2533333 106.332,35.824 C106.332,34.032 105.753333,32.5293333 104.596,31.316 C104.017333,30.7373333 103.364,30.2986667 102.636,30 C101.908,29.7013333 101.077333,29.552 100.144,29.552 C98.128,29.552 96.4946667,30.2706667 95.244,31.708 C94.012,33.164 93.396,34.9933333 93.396,37.196 C93.396,39.38 93.9746667,41.1346667 95.132,42.46 C96.308,43.7853333 97.904,44.448 99.92,44.448 Z M103.28,35.152 L96.7,35.152 C96.7,34.4053333 97.0546667,33.7053333 97.764,33.052 C98.548,32.38 99.3506667,32.044 100.172,32.044 C100.974667,32.044 101.702667,32.352 102.356,32.968 C102.972,33.584 103.28,34.312 103.28,35.152 L103.28,35.152 Z M114.116,44.112 C115.18,44.112 115.712,43.7013333 115.712,42.88 C115.712,42.0213333 115.18,41.592 114.116,41.592 C114.022667,41.592 113.924667,41.5966667 113.822,41.606 C113.719333,41.6153333 113.621333,41.6293333 113.528,41.648 C113.509333,41.648 113.495333,41.6526667 113.486,41.662 C113.476667,41.6713333 113.462667,41.676 113.444,41.676 L113.444,41.676 L115.964,38.792 L118.316,41.648 C118.166667,41.6293333 118.031333,41.6153333 117.91,41.606 C117.788667,41.5966667 117.681333,41.592 117.588,41.592 C116.636,41.592 116.16,42.0213333 116.16,42.88 C116.16,43.7013333 116.729333,44.112 117.868,44.112 L117.868,44.112 L118.176,44.112 L119.128,44 C119.594667,43.944 120.070667,43.916 120.556,43.916 C120.817333,43.916 121.046,43.9206667 121.242,43.93 C121.438,43.9393333 121.610667,43.9533333 121.76,43.972 L121.76,43.972 L122.824,44.112 L123.048,44.112 C124.093333,44.112 124.616,43.6733333 124.616,42.796 C124.616,41.9933333 124.149333,41.592 123.216,41.592 C123.122667,41.592 123.029333,41.5966667 122.936,41.606 C122.842667,41.6153333 122.749333,41.6293333 122.656,41.648 C122.562667,41.6666667 122.478667,41.6806667 122.404,41.69 C122.329333,41.6993333 122.273333,41.704 122.236,41.704 C122.030667,41.704 121.844,41.592 121.676,41.368 C121.004,40.584 120.350667,39.814 119.716,39.058 C119.081333,38.302 118.428,37.532 117.756,36.748 L117.756,36.748 L120.612,33.472 C121.284,32.7066667 121.76,32.324 122.04,32.324 L122.04,32.324 L122.544,32.436 C122.656,32.4733333 122.763333,32.5013333 122.866,32.52 C122.968667,32.5386667 123.094667,32.548 123.244,32.548 C124.14,32.548 124.588,32.128 124.588,31.288 C124.588,30.448 124.056,30.028 122.992,30.028 C122.898667,30.028 122.772667,30.0326667 122.614,30.042 C122.455333,30.0513333 122.282667,30.0653333 122.096,30.084 C121.834667,30.1213333 121.564,30.1493333 121.284,30.168 C121.004,30.1866667 120.752,30.196 120.528,30.196 C120.210667,30.196 119.8,30.168 119.296,30.112 C118.792,30.056 118.241333,30.028 117.644,30.028 C117.121333,30.028 116.766667,30.1586667 116.58,30.42 C116.393333,30.6813333 116.3,30.952 116.3,31.232 C116.3,32.0906667 116.766667,32.52 117.7,32.52 C117.718667,32.52 117.742,32.5246667 117.77,32.534 C117.798,32.5433333 117.830667,32.5386667 117.868,32.52 L117.868,32.52 L115.992,34.704 L114.172,32.52 L114.396,32.52 C115.366667,32.52 115.852,32.1093333 115.852,31.288 C115.852,30.448 115.338667,30.028 114.312,30.028 C113.957333,30.028 113.518667,30.056 112.996,30.112 C112.454667,30.168 112.034667,30.196 111.736,30.196 L111.736,30.196 L111.344,30.196 C111.194667,30.196 111.036,30.1866667 110.868,30.168 C110.830667,30.168 110.798,30.1633333 110.77,30.154 C110.742,30.1446667 110.709333,30.14 110.672,30.14 C110.261333,30.1026667 109.934667,30.0746667 109.692,30.056 C109.449333,30.0373333 109.318667,30.028 109.3,30.028 C108.217333,30.028 107.676,30.448 107.676,31.288 C107.676,32.1093333 108.124,32.52 109.02,32.52 L109.02,32.52 L109.258,32.52 C109.342,32.52 109.412,32.5106667 109.468,32.492 L109.468,32.492 L109.832,32.408 C109.925333,32.3706667 109.990667,32.352 110.028,32.352 L110.028,32.352 L110.14,32.352 C110.364,32.352 110.550667,32.4546667 110.7,32.66 C111.278667,33.3133333 111.857333,33.9946667 112.436,34.704 C113.014667,35.4133333 113.593333,36.0946667 114.172,36.748 L114.172,36.748 L110.7,40.752 C110.158667,41.368 109.794667,41.676 109.608,41.676 L109.608,41.676 L109.44,41.676 C109.365333,41.676 109.281333,41.6666667 109.188,41.648 C109.094667,41.6293333 109.006,41.6153333 108.922,41.606 C108.838,41.5966667 108.749333,41.592 108.656,41.592 C107.722667,41.592 107.256,42.0026667 107.256,42.824 C107.256,43.6826667 107.778667,44.112 108.824,44.112 C108.973333,44.112 109.16,44.1026667 109.384,44.084 C109.608,44.0653333 109.878667,44.0373333 110.196,44 C110.662667,43.944 111.026667,43.916 111.288,43.916 C111.642667,43.916 112.090667,43.944 112.632,44 L112.632,44 L113.724,44.112 L114.116,44.112 Z M131.588,44.336 C133.286667,44.336 134.509333,43.776 135.256,42.656 C135.517333,42.2266667 135.722667,41.662 135.872,40.962 C136.021333,40.262 136.096,39.408 136.096,38.4 C136.096,37.336 135.638667,36.804 134.724,36.804 C133.809333,36.804 133.333333,37.2893333 133.296,38.26 L133.296,38.26 L133.24,39.968 C133.24,41.2186667 132.745333,41.844 131.756,41.844 C130.841333,41.844 130.384,41.0413333 130.384,39.436 L130.384,39.436 L130.384,32.912 C130.384,32.8186667 130.356,32.7533333 130.3,32.716 L130.3,32.716 L133.24,32.716 C134.248,32.716 134.752,32.268 134.752,31.372 C134.752,30.5133333 134.266667,30.084 133.296,30.084 L133.296,30.084 L130.412,30.084 C130.393333,30.084 130.384,30.0746667 130.384,30.056 L130.384,30.056 L130.384,27.228 C130.384,26.2946667 129.917333,25.828 128.984,25.828 C127.994667,25.828 127.5,26.2946667 127.5,27.228 L127.5,27.228 L127.5,30.084 L126.464,30.084 C126.109333,30.084 125.796667,30.2193333 125.526,30.49 C125.255333,30.7606667 125.12,31.064 125.12,31.4 C125.12,31.7733333 125.255333,32.086 125.526,32.338 C125.796667,32.59 126.137333,32.716 126.548,32.716 L126.548,32.716 L127.388,32.716 C127.425333,32.716 127.444,32.7813333 127.444,32.912 L127.444,32.912 L127.444,39.268 C127.444,40.8733333 127.696,42.0586667 128.2,42.824 C128.536,43.3093333 128.988667,43.6826667 129.558,43.944 C130.127333,44.2053333 130.804,44.336 131.588,44.336 Z M140.156,44.448 C140.753333,44.448 141.257333,44.252 141.668,43.86 C142.078667,43.468 142.284,42.9733333 142.284,42.376 C142.284,41.7973333 142.078667,41.3073333 141.668,40.906 C141.257333,40.5046667 140.753333,40.304 140.156,40.304 C139.558667,40.304 139.054667,40.5046667 138.644,40.906 C138.233333,41.3073333 138.028,41.7973333 138.028,42.376 C138.028,42.9733333 138.233333,43.468 138.644,43.86 C139.054667,44.252 139.558667,44.448 140.156,44.448 Z M148.136,29.356 C148.677333,29.356 149.139333,29.1786667 149.522,28.824 C149.904667,28.4693333 150.096,28.0306667 150.096,27.508 C150.096,26.9853333 149.904667,26.5513333 149.522,26.206 C149.139333,25.8606667 148.677333,25.688 148.136,25.688 C147.594667,25.688 147.137333,25.8606667 146.764,26.206 C146.390667,26.5513333 146.204,26.9853333 146.204,27.508 C146.204,28.0306667 146.390667,28.4693333 146.764,28.824 C147.137333,29.1786667 147.594667,29.356 148.136,29.356 Z M150.23124,41.7516 C150.13548,41.7012 150.0624,41.424 150.012,40.92 C149.993333,40.8266667 149.984,40.654 149.984,40.402 L149.984,40.402 L149.984,34.83 C149.984,34.466 149.993333,34.0973333 150.012,33.724 C150.012,33.5746667 150.016667,33.43 150.026,33.29 C150.035333,33.15 150.04,33.0146667 150.04,32.884 C150.04,32.4173333 150.049333,32.156 150.068,32.1 L150.068,32.1 L150.068,32.002 C150.068,31.9553333 150.077333,31.8946667 150.096,31.82 L150.096,31.82 L150.096,31.428 C150.096,30.4946667 149.694667,30.028 148.892,30.028 L148.892,30.028 L148.164,30.112 C148.052,30.1306667 147.935333,30.1446667 147.814,30.154 C147.692667,30.1633333 147.613333,30.168 147.576,30.168 C147.52,30.168 147.403333,30.1586667 147.226,30.14 C147.048667,30.1213333 146.829333,30.0933333 146.568,30.056 C146.512,30.0373333 146.418667,30.028 146.288,30.028 L146.288,30.028 L145.784,30.028 C144.701333,30.028 144.16,30.448 144.16,31.288 C144.16,32.1093333 144.636,32.52 145.588,32.52 C145.662667,32.52 145.760667,32.5153333 145.882,32.506 C146.003333,32.4966667 146.110667,32.4733333 146.204,32.436 C146.334667,32.3986667 146.446667,32.3706667 146.54,32.352 C146.633333,32.3333333 146.698667,32.324 146.736,32.324 C146.904,32.324 147.016,32.7626667 147.072,33.64 L147.072,33.64 L147.072,40.388 C147.016,41.284 146.913333,41.732 146.764,41.732 L146.764,41.732 L146.596,41.732 C146.521333,41.732 146.418667,41.7133333 146.288,41.676 C146.176,41.6573333 146.031333,41.6386667 145.854,41.62 C145.676667,41.6013333 145.569333,41.592 145.532,41.592 C144.617333,41.592 144.16,42.0026667 144.16,42.824 C144.16,43.6826667 144.664,44.112 145.672,44.112 C145.821333,44.112 146.012667,44.098 146.246,44.07 C146.479333,44.042 146.764,44.0093333 147.1,43.972 C147.38,43.9346667 147.646,43.9066667 147.898,43.888 C148.15,43.8693333 148.378667,43.86 148.584,43.86 C148.714667,43.86 148.882667,43.874 149.088,43.902 C149.293333,43.93 149.536,43.9626667 149.816,44 C150.114667,44.0373333 150.376,44.0653333 150.6,44.084 C150.824,44.1026667 151.010667,44.112 151.16,44.112 C151.626667,44.112 152.014,43.9906667 152.322,43.748 C152.63,43.5053333 152.784,43.1973333 152.784,42.824 C152.784,42.0026667 152.298667,41.592 151.328,41.592 C151.197333,41.592 151.09,41.6013333 151.006,41.62 C150.922,41.6386667 150.852,41.6573333 150.796,41.676 L150.796,41.676 L150.824,41.648 C150.656,41.6853333 150.516,41.7133333 150.404,41.732 C150.292,41.7506667 150.245333,41.76 150.264,41.76 L150.23124,41.7516 Z M160.092,44.448 C162.164,44.448 163.806667,43.748 165.02,42.348 C166.233333,41.004 166.84,39.1933333 166.84,36.916 C166.84,34.676 166.252,32.8933333 165.076,31.568 C163.862667,30.224 162.229333,29.552 160.176,29.552 C158.122667,29.552 156.498667,30.2426667 155.304,31.624 C154.109333,32.9493333 153.512,34.7413333 153.512,37 C153.512,39.24 154.109333,41.0413333 155.304,42.404 C156.498667,43.7666667 158.094667,44.448 160.092,44.448 Z M160.12,41.956 C159,41.956 158.132,41.5173333 157.516,40.64 C156.9,39.7626667 156.592,38.5493333 156.592,37 L156.592,37 L156.592,36.692 C156.648,35.1986667 156.988667,34.0506667 157.614,33.248 C158.239333,32.4453333 159.112,32.044 160.232,32.044 C162.621333,32.044 163.816,33.6866667 163.816,36.972 C163.816,38.5586667 163.484667,39.786 162.822,40.654 C162.159333,41.522 161.258667,41.956 160.12,41.956 Z" id="typedtext.io"></path>
            </g>
        </g>
    </g>
</svg>